<svg width="48" height="48" viewBox="0 0 48 48" fill="none" xmlns="http://www.w3.org/2000/svg">
<path d="M1 18.1265C1 18.1265 8.05822 23.6687 10.3615 25.7542" stroke="#55413C" stroke-width="2" stroke-linecap="round" stroke-linejoin="round"/>
<path d="M16.3539 28.8078C16.3505 33.6049 16.3472 38.402 16.3438 43.199" stroke="#55413C" stroke-width="2" stroke-linecap="round" stroke-linejoin="round"/>
<path d="M22.5233 21.342V42.0063C22.5233 42.6267 22.208 43.2086 21.6671 43.5779C20.3779 44.458 17.9949 46.0483 17.1083 46.3985L10.3648 46.3896C9.94429 46.0289 1.54264 38.7253 1.54264 38.7253C1.23555 31.819 1.05462 24.9079 1 17.996L2.85964 17.0248C5.79736 15.67 12.9582 12.0798 16.2649 10.354C17.84 9.532 17.8498 7.53488 19.4442 6.60685C20.7061 5.87236 24.2167 4.30403 25.3952 3.7826C25.6536 3.66829 25.9373 3.63183 26.2205 3.67274L27.8744 3.91181C28.4341 3.99271 29.0069 3.89148 29.4944 3.62552L34.4926 1L44.6464 6.93245C44.6464 6.93245 40.5289 9.07864 38.8117 9.73455C37.345 10.2948 35.7821 8.69304 34.968 8.91178C33.89 9.20148 28.379 12.2089 27.6717 13.0843C27.3686 13.4594 26.559 15.5662 25.5779 16.3003C24.7447 16.9236 24.0547 17.3693 22.968 17.966C22.59 18.1736 22.3637 18.5479 22.3637 18.9534V21.3419C22.3637 21.9229 22.0323 22.461 21.491 22.7589L15.8561 25.8601C13.9342 25.9491 12.0056 25.9137 10.0891 25.7541" stroke="#55413C" stroke-width="2" stroke-linecap="round" stroke-linejoin="round"/>
<path d="M37.56 38.2649C35.7496 39.0897 33.1218 39.6104 31.6257 37.9467C31.2826 37.5652 31.0919 37.0896 30.9146 36.6219C30.7392 36.1592 30.5664 35.6854 30.5038 35.1964C30.3376 33.8961 30.6648 32.3621 30.9743 31.0931C31.3061 29.7326 31.8139 28.4088 32.4767 27.1555C33.7948 24.6631 35.7371 22.4274 38.1834 20.8008C39.2361 20.1008 40.4081 19.5031 41.6911 19.3209C42.9742 19.1388 44.3864 19.4281 45.2887 20.2882C46.1614 21.1201 46.4389 22.3386 46.5008 23.4942C46.606 25.457 46.1996 27.4234 45.5095 29.2828C44.1174 33.0339 41.4163 36.5079 37.56 38.2649Z" stroke="#55413C" stroke-width="2" stroke-linecap="round" stroke-linejoin="round"/>
<path d="M31.9382 38.0428C30.8847 37.0724 29.8152 36.1168 28.73 35.1765C27.7807 34.3541 25.7236 32.5368 25.7236 32.5368C25.7236 32.5368 24.9628 29.91 25.3164 26.3521C25.9733 19.7411 31.5234 16.2815 35.5129 15.3241C36.2002 15.1592 37.6762 15.1654 37.6762 15.1654C37.6762 15.1654 39.1985 15.9709 39.843 16.4404C41.4523 17.6128 43.0234 18.8404 44.7443 19.8748" stroke="#55413C" stroke-width="2" stroke-linecap="round" stroke-linejoin="round"/>
<path d="M27.9084 34.4598C26.3698 25.5756 29.4067 21.7209 32.9602 19.0264C32.9602 19.0264 36.1509 16.6837 40.2583 16.7234" stroke="#55413C" stroke-width="2" stroke-linecap="round" stroke-linejoin="round"/>
<path d="M34.1114 35.6178C33.746 35.3177 33.5272 34.844 33.4944 34.2017C33.3814 31.9962 34.1117 29.8534 35.3435 27.9784C36.554 26.1357 38.2562 24.267 40.2026 23.0576C40.9879 22.5696 42.0155 22.1877 42.8582 22.5864C43.3515 22.8199 43.6779 23.2888 43.8177 23.7834C43.9576 24.278 43.9313 24.7994 43.8653 25.3068C43.6035 27.3204 42.7323 29.2174 41.6013 30.942C40.5116 32.6037 39.2636 34.3524 37.4352 35.3829C37.0163 35.6189 36.568 35.8189 36.0891 35.9198C35.2523 36.0963 34.5675 35.9923 34.1114 35.6178Z" stroke="#55413C" stroke-width="2" stroke-linecap="round" stroke-linejoin="round"/>
<path d="M33.5488 34.0281C34.9076 35.33 36.8124 33.3585 37.713 32.4854C39.1064 31.1348 40.2437 29.5499 40.9962 27.8179C41.4694 26.7288 42.855 23.5917 41.151 22.9001" stroke="#55413C" stroke-width="2" stroke-linecap="round" stroke-linejoin="round"/>
<path d="M39.0071 26.9465C38.6249 28.3605 37.8395 29.6801 36.751 30.737" stroke="#55413C" stroke-width="2" stroke-linecap="round" stroke-linejoin="round"/>
<path d="M44.6464 6.9325L44.3936 19.4319" stroke="#55413C" stroke-width="2" stroke-linecap="round" stroke-linejoin="round"/>
<path d="M22.4883 40.5548C23.2199 40.1214 29.1396 36.2882 29.1396 36.2882" stroke="#55413C" stroke-width="2" stroke-linecap="round" stroke-linejoin="round"/>
<path d="M31.4111 4.77509L37.2015 7.81977" stroke="#55413C" stroke-width="2" stroke-linecap="round" stroke-linejoin="round"/>
<path d="M19.0132 11.1062C20.7274 12.1726 22.4337 13.25 24.1317 14.3383" stroke="#55413C" stroke-width="2" stroke-linecap="round" stroke-linejoin="round"/>
<path d="M35.1531 8.87282C35.1531 8.87282 27.4426 4.89746 25.71 3.77567" stroke="#55413C" stroke-width="2" stroke-linecap="round" stroke-linejoin="round"/>
<path d="M27.9866 12.2863C27.9866 12.2863 21.0988 8.09189 19.3662 6.97009" stroke="#55413C" stroke-width="2" stroke-linecap="round" stroke-linejoin="round"/>
<path d="M10.2099 45.9245C9.85151 39.1064 9.77335 32.2758 9.9757 25.4522" stroke="#55413C" stroke-width="2" stroke-linecap="round" stroke-linejoin="round"/>
<path d="M15.3414 20.8785C16.12 20.8231 19.0754 19.951 17.9686 18.7719C17.7693 18.5596 17.4684 18.457 17.1757 18.3815C15.695 17.9995 14.07 18.1167 12.6699 18.7065C12.4046 18.8182 12.129 18.9636 12.0115 19.2107C11.8901 19.4657 11.9742 19.7746 12.1579 19.9949C12.3417 20.2153 12.61 20.3611 12.8828 20.478C13.6462 20.8053 14.502 20.938 15.3414 20.8785Z" stroke="#55413C" stroke-width="2" stroke-linecap="round" stroke-linejoin="round"/>
<path d="M11.9546 19.7742L12.0115 20.9888C12.0115 20.9888 11.9742 21.5527 12.158 21.7731C12.3417 21.9934 12.61 22.1392 12.8828 22.2561C13.6462 22.5834 14.5021 22.7162 15.3414 22.6566C15.9732 22.6117 18.0386 22.0289 18.2033 21.1806C18.2415 20.9836 18.2137 19.4319 18.2137 19.4319" stroke="#55413C" stroke-width="2" stroke-linecap="round" stroke-linejoin="round"/>
</svg>
