<svg width="57" height="57" viewBox="0 0 57 57" fill="none" xmlns="http://www.w3.org/2000/svg">
<path fill-rule="evenodd" clip-rule="evenodd" d="M27.0596 5.76518C27.9375 5.20327 29.0621 5.20327 29.9401 5.76518L52.2058 20.0152C53.4486 20.8106 53.8114 22.463 53.0159 23.7059C52.2205 24.9488 50.5681 25.3115 49.3252 24.5161L47.203 23.1578V44.5312C47.203 48.4663 44.013 51.6562 40.078 51.6562H16.9217C12.9867 51.6562 9.79671 48.4663 9.79671 44.5312V23.1579L7.6745 24.5161C6.43162 25.3115 4.77922 24.9488 3.98377 23.7059C3.18833 22.463 3.55105 20.8106 4.79393 20.0152L27.0596 5.76518ZM33.2394 23.1817C33.904 22.7357 33.8572 21.6841 33.0694 21.543C32.4535 21.4326 31.8193 21.375 31.1717 21.375C25.2692 21.375 20.4842 26.16 20.4842 32.0625C20.4842 37.965 25.2692 42.75 31.1717 42.75C31.8193 42.75 32.4535 42.6924 33.0694 42.582C33.8572 42.4409 33.904 41.3893 33.2394 40.9433C30.381 39.0251 28.4998 35.7635 28.4998 32.0625C28.4998 28.3615 30.381 25.0999 33.2394 23.1817Z" fill="#55413C"/>
</svg>
