<svg width="68" height="68" viewBox="0 0 68 68" fill="none" xmlns="http://www.w3.org/2000/svg">
<path fill-rule="evenodd" clip-rule="evenodd" d="M40.699 21.1808L29.8098 33.8982L17.1148 24.4722C14.7456 22.7132 14.4919 19.2603 16.5784 17.1737C17.8022 15.95 19.5868 15.4739 21.2575 15.9255L40.699 21.1808ZM36.3934 22.5096L20.6296 18.2484C19.7906 18.0216 18.8944 18.2607 18.2799 18.8752C17.2321 19.923 17.3595 21.657 18.5492 22.5403L29.442 30.6281L36.3934 22.5096Z" fill="url(#paint0_linear_290_1234)"/>
<path d="M20.6296 18.2484L36.3934 22.5096L29.442 30.6281L18.5492 22.5403C17.3595 21.657 17.2321 19.923 18.2799 18.8752C18.8944 18.2607 19.7906 18.0216 20.6296 18.2484Z" fill="url(#paint1_linear_290_1234)"/>
<path fill-rule="evenodd" clip-rule="evenodd" d="M46.6009 27.0825L33.8836 37.9717L43.3095 50.6668C45.0686 53.0359 48.5215 53.2897 50.608 51.2031C51.8318 49.9794 52.3079 48.1947 51.8562 46.5241L46.6009 27.0825ZM45.2722 31.3881L49.5334 47.152C49.7602 47.9909 49.5211 48.8871 48.9065 49.5017C47.8587 50.5495 46.1248 50.422 45.2414 49.2323L37.1537 38.3395L45.2722 31.3881Z" fill="url(#paint2_linear_290_1234)"/>
<path d="M49.5334 47.152L45.2722 31.3881L37.1537 38.3395L45.2414 49.2323C46.1248 50.422 47.8587 50.5495 48.9065 49.5017C49.5211 48.8871 49.7602 47.9909 49.5334 47.152Z" fill="url(#paint3_linear_290_1234)"/>
<path fill-rule="evenodd" clip-rule="evenodd" d="M27.3353 36.5967L21.4934 43.4193L15.4717 38.9483C14.1094 37.9368 13.9635 35.9513 15.1633 34.7515C15.8669 34.0478 16.8931 33.7741 17.8538 34.0337L27.3353 36.5967ZM23.0297 37.9255L17.2259 36.3566C17.097 36.3218 16.9592 36.3585 16.8647 36.453C16.7037 36.614 16.7233 36.8805 16.9062 37.0163L21.1256 40.1492L23.0297 37.9255Z" fill="url(#paint4_linear_290_1234)"/>
<path d="M17.2259 36.3566L23.0297 37.9255L21.1256 40.1492L16.9062 37.0163C16.7233 36.8805 16.7037 36.614 16.8647 36.453C16.9592 36.3585 17.097 36.3218 17.2259 36.3566Z" fill="url(#paint5_linear_290_1234)"/>
<path fill-rule="evenodd" clip-rule="evenodd" d="M31.1761 40.4376L24.3535 46.2794L28.8245 52.3011C29.836 53.6634 31.8215 53.8094 33.0213 52.6096C33.725 51.9059 33.9987 50.8797 33.7391 49.919L31.1761 40.4376ZM29.8473 44.7431L31.4162 50.5469C31.451 50.6759 31.4143 50.8136 31.3198 50.9081C31.1588 51.0691 30.8923 51.0496 30.7565 50.8667L27.6236 46.6472L29.8473 44.7431Z" fill="url(#paint6_linear_290_1234)"/>
<path d="M31.4162 50.5469L29.8473 44.7431L27.6236 46.6472L30.7565 50.8667C30.8923 51.0496 31.1588 51.0691 31.3198 50.9081C31.4143 50.8136 31.451 50.6759 31.4162 50.5469Z" fill="url(#paint7_linear_290_1234)"/>
<path fill-rule="evenodd" clip-rule="evenodd" d="M40.7138 17.7321C43.2252 14.8363 47.6659 14.6787 50.3764 17.3891C53.0868 20.0996 52.9292 24.5402 50.0333 27.0517L27.281 46.7838C25.5107 48.3191 22.8547 48.2248 21.1977 46.5678C19.5407 44.9108 19.4464 42.2548 20.9817 40.4844L40.7138 17.7321ZM48.6749 19.0906C46.9516 17.3673 44.1284 17.4676 42.5317 19.3087L22.7996 42.061C22.0915 42.8774 22.135 44.1022 22.8991 44.8663C23.6633 45.6304 24.8881 45.6739 25.7045 44.9659L48.4568 25.2338C50.2979 23.6371 50.3981 20.8138 48.6749 19.0906Z" fill="url(#paint8_linear_290_1234)"/>
<path fill-rule="evenodd" clip-rule="evenodd" d="M27.4313 40.3477C27.9012 40.8176 27.9012 41.5794 27.4313 42.0492L19.097 50.3835C18.6271 50.8534 17.8654 50.8534 17.3955 50.3835C16.9257 49.9137 16.9257 49.1519 17.3955 48.6821L25.7298 40.3477C26.1997 39.8779 26.9615 39.8779 27.4313 40.3477Z" fill="url(#paint9_linear_290_1234)"/>
<path fill-rule="evenodd" clip-rule="evenodd" d="M45.3756 23.1828C45.3773 22.7541 45.0302 22.4056 44.6014 22.4056L42.8857 22.4056C42.3496 22.4056 41.9149 21.9709 41.9149 21.4347C41.9149 20.8986 42.3496 20.4639 42.8857 20.4639L44.6014 20.4639C46.1056 20.4639 47.3233 21.6865 47.3172 23.1906L47.3104 24.8925C47.3082 25.4287 46.8718 25.8616 46.3357 25.8594C45.7995 25.8573 45.3666 25.4209 45.3687 24.8847L45.3756 23.1828Z" fill="url(#paint10_linear_290_1234)"/>
<defs>
<linearGradient id="paint0_linear_290_1234" x1="49.9678" y1="17.8139" x2="18.031" y2="49.7506" gradientUnits="userSpaceOnUse">
<stop offset="1" stop-color="#55413C"/>
</linearGradient>
<linearGradient id="paint1_linear_290_1234" x1="49.9678" y1="17.8139" x2="18.031" y2="49.7506" gradientUnits="userSpaceOnUse">
<stop offset="1" stop-color="#55413C"/>
</linearGradient>
<linearGradient id="paint2_linear_290_1234" x1="49.9678" y1="17.8139" x2="18.031" y2="49.7506" gradientUnits="userSpaceOnUse">
<stop offset="1" stop-color="#55413C"/>
</linearGradient>
<linearGradient id="paint3_linear_290_1234" x1="49.9678" y1="17.8139" x2="18.031" y2="49.7506" gradientUnits="userSpaceOnUse">
<stop offset="1" stop-color="#55413C"/>
</linearGradient>
<linearGradient id="paint4_linear_290_1234" x1="50.1541" y1="17.6261" x2="17.6559" y2="50.1243" gradientUnits="userSpaceOnUse">
<stop offset="1" stop-color="#55413C"/>
</linearGradient>
<linearGradient id="paint5_linear_290_1234" x1="50.1541" y1="17.6261" x2="17.6559" y2="50.1243" gradientUnits="userSpaceOnUse">
<stop offset="1" stop-color="#55413C"/>
</linearGradient>
<linearGradient id="paint6_linear_290_1234" x1="50.1541" y1="17.6261" x2="17.6559" y2="50.1243" gradientUnits="userSpaceOnUse">
<stop offset="1" stop-color="#55413C"/>
</linearGradient>
<linearGradient id="paint7_linear_290_1234" x1="50.1541" y1="17.6261" x2="17.6559" y2="50.1243" gradientUnits="userSpaceOnUse">
<stop offset="1" stop-color="#55413C"/>
</linearGradient>
<linearGradient id="paint8_linear_290_1234" x1="50.3764" y1="17.3891" x2="17.9365" y2="49.8436" gradientUnits="userSpaceOnUse">
<stop offset="1" stop-color="#55413C"/>
</linearGradient>
<linearGradient id="paint9_linear_290_1234" x1="49.7792" y1="17.9998" x2="17.3955" y2="50.3835" gradientUnits="userSpaceOnUse">
<stop offset="1" stop-color="#55413C"/>
</linearGradient>
<linearGradient id="paint10_linear_290_1234" x1="49.9666" y1="17.8131" x2="17.6555" y2="50.1242" gradientUnits="userSpaceOnUse">
<stop offset="1" stop-color="#55413C"/>
</linearGradient>
</defs>
</svg>
