<svg width="42" height="42" viewBox="0 0 42 42" fill="none" xmlns="http://www.w3.org/2000/svg">
<path d="M20.7542 0C12.0923 0 9.55906 0.00893566 9.06664 0.0497844C7.28909 0.197542 6.18298 0.477419 4.97794 1.07739C4.04927 1.53853 3.31687 2.07307 2.59404 2.82239C1.27762 4.18891 0.479795 5.87009 0.190982 7.86848C0.0505645 8.83864 0.00971575 9.0365 0.00141836 13.992C-0.00177295 15.6438 0.00141836 17.8177 0.00141836 20.7336C0.00141836 29.3884 0.0109923 31.9191 0.0524793 32.4106C0.196088 34.1403 0.467349 35.2285 1.04178 36.4189C2.13959 38.6975 4.23628 40.408 6.70635 41.0463C7.56162 41.2665 8.50625 41.3877 9.71895 41.4452C10.2327 41.4675 15.4697 41.4835 20.7098 41.4835C25.9499 41.4835 31.1901 41.4771 31.6911 41.4516C33.0953 41.3855 33.9106 41.276 34.8122 41.0431C36.037 40.729 37.1784 40.1513 38.1568 39.3504C39.1352 38.5495 39.9269 37.5447 40.4768 36.4061C41.04 35.2445 41.3256 34.1147 41.4549 32.4754C41.483 32.1179 41.4948 26.4192 41.4948 20.7282C41.4948 15.0362 41.482 9.34797 41.4539 8.99055C41.3231 7.32469 41.0375 6.20454 40.456 5.02056C39.9789 4.05136 39.4492 3.32758 38.6801 2.58751C37.3078 1.27652 35.6292 0.478696 33.6285 0.190202C32.6593 0.0501035 32.4663 0.00861653 27.507 0H20.7542Z" fill="url(#paint0_radial_618_12124)"/>
<path d="M20.7542 0C12.0923 0 9.55906 0.00893566 9.06664 0.0497844C7.28909 0.197542 6.18298 0.477419 4.97794 1.07739C4.04927 1.53853 3.31687 2.07307 2.59404 2.82239C1.27762 4.18891 0.479795 5.87009 0.190982 7.86848C0.0505645 8.83864 0.00971575 9.0365 0.00141836 13.992C-0.00177295 15.6438 0.00141836 17.8177 0.00141836 20.7336C0.00141836 29.3884 0.0109923 31.9191 0.0524793 32.4106C0.196088 34.1403 0.467349 35.2285 1.04178 36.4189C2.13959 38.6975 4.23628 40.408 6.70635 41.0463C7.56162 41.2665 8.50625 41.3877 9.71895 41.4452C10.2327 41.4675 15.4697 41.4835 20.7098 41.4835C25.9499 41.4835 31.1901 41.4771 31.6911 41.4516C33.0953 41.3855 33.9106 41.276 34.8122 41.0431C36.037 40.729 37.1784 40.1513 38.1568 39.3504C39.1352 38.5495 39.9269 37.5447 40.4768 36.4061C41.04 35.2445 41.3256 34.1147 41.4549 32.4754C41.483 32.1179 41.4948 26.4192 41.4948 20.7282C41.4948 15.0362 41.482 9.34797 41.4539 8.99055C41.3231 7.32469 41.0375 6.20454 40.456 5.02056C39.9789 4.05136 39.4492 3.32758 38.6801 2.58751C37.3078 1.27652 35.6292 0.478696 33.6285 0.190202C32.6593 0.0501035 32.4663 0.00861653 27.507 0H20.7542Z" fill="url(#paint1_radial_618_12124)"/>
<path d="M20.745 5.42578C16.5848 5.42578 16.0627 5.44397 14.4288 5.51833C12.798 5.59301 11.6849 5.85118 10.7109 6.22999C9.70341 6.62124 8.84878 7.14462 7.99734 7.99638C7.14526 8.84782 6.62188 9.70245 6.22935 10.7096C5.84959 11.6839 5.59109 12.7974 5.51769 14.4275C5.44493 16.0614 5.42578 16.5839 5.42578 20.7441C5.42578 24.9042 5.44429 25.4247 5.51833 27.0587C5.59333 28.6894 5.8515 29.8026 6.22999 30.7766C6.62156 31.7841 7.14494 32.6387 7.9967 33.4901C8.84782 34.3422 9.70245 34.8669 10.7093 35.2581C11.6839 35.6369 12.7974 35.8951 14.4278 35.9698C16.0618 36.0441 16.5835 36.0623 20.7434 36.0623C24.9039 36.0623 25.4244 36.0441 27.0584 35.9698C28.6891 35.8951 29.8035 35.6369 30.7782 35.2581C31.7853 34.8669 32.6387 34.3422 33.4898 33.4901C34.3419 32.6387 34.8653 31.7841 35.2578 30.7769C35.6344 29.8026 35.8929 28.6891 35.9695 27.059C36.0429 25.4251 36.062 24.9042 36.062 20.7441C36.062 16.5839 36.0429 16.0618 35.9695 14.4278C35.8929 12.7971 35.6344 11.6839 35.2578 10.7099C34.8653 9.70245 34.3419 8.84782 33.4898 7.99638C32.6377 7.1443 31.7857 6.62093 30.7772 6.22999C29.8007 5.85118 28.6869 5.59301 27.0561 5.51833C25.4222 5.44397 24.902 5.42578 20.7405 5.42578H20.745ZM19.3708 8.18626C19.7787 8.18562 20.2338 8.18626 20.745 8.18626C24.835 8.18626 25.3197 8.20094 26.9349 8.27434C28.4284 8.34264 29.239 8.5922 29.779 8.80186C30.4938 9.07951 31.0035 9.4114 31.5393 9.94754C32.0754 10.4837 32.4073 10.9943 32.6856 11.7091C32.8953 12.2485 33.1451 13.0591 33.2131 14.5526C33.2865 16.1674 33.3025 16.6525 33.3025 20.7405C33.3025 24.8286 33.2865 25.3137 33.2131 26.9285C33.1448 28.422 32.8953 29.2326 32.6856 29.7719C32.408 30.4868 32.0754 30.9958 31.5393 31.5316C31.0031 32.0678 30.4941 32.3997 29.779 32.6773C29.2396 32.8879 28.4284 33.1369 26.9349 33.2051C25.3201 33.2785 24.835 33.2945 20.745 33.2945C16.6547 33.2945 16.17 33.2785 14.5552 33.2051C13.0616 33.1362 12.251 32.8867 11.7107 32.677C10.9959 32.3993 10.4853 32.0674 9.94914 31.5313C9.413 30.9952 9.0811 30.4858 8.80282 29.7707C8.59315 29.2313 8.34327 28.4207 8.2753 26.9272C8.2019 25.3124 8.18722 24.8273 8.18722 20.7367C8.18722 16.6461 8.2019 16.1636 8.2753 14.5488C8.34359 13.0552 8.59315 12.2446 8.80282 11.7047C9.08047 10.9898 9.413 10.4792 9.94914 9.94308C10.4853 9.40694 10.9959 9.07504 11.7107 8.79676C12.2507 8.58613 13.0616 8.33721 14.5552 8.2686C15.9683 8.20477 16.5159 8.18562 19.3708 8.18243V8.18626ZM28.9218 10.7297C28.5582 10.7297 28.2028 10.8376 27.9005 11.0396C27.5982 11.2416 27.3626 11.5287 27.2234 11.8646C27.0843 12.2005 27.048 12.5702 27.1189 12.9268C27.1899 13.2834 27.3651 13.6109 27.6222 13.8679C27.8793 14.125 28.2069 14.3 28.5636 14.3709C28.9202 14.4417 29.2898 14.4052 29.6257 14.266C29.9615 14.1268 30.2486 13.8911 30.4505 13.5887C30.6524 13.2863 30.7601 12.9309 30.76 12.5673C30.76 11.5525 29.9366 10.7291 28.9218 10.7291V10.7297ZM20.745 12.8775C16.4007 12.8775 12.8784 16.3997 12.8784 20.7441C12.8784 25.0884 16.4007 28.609 20.745 28.609C25.0893 28.609 28.6106 25.0884 28.6106 20.7441C28.6106 16.3997 25.089 12.8775 20.7447 12.8775H20.745ZM20.745 15.638C23.5648 15.638 25.8511 17.9239 25.8511 20.7441C25.8511 23.5639 23.5648 25.8501 20.745 25.8501C17.9249 25.8501 15.6389 23.5639 15.6389 20.7441C15.6389 17.9239 17.9249 15.638 20.745 15.638V15.638Z" fill="white"/>
<defs>
<radialGradient id="paint0_radial_618_12124" cx="0" cy="0" r="1" gradientUnits="userSpaceOnUse" gradientTransform="translate(11.0221 44.6786) rotate(-90) scale(41.1132 38.2489)">
<stop stop-color="#FFDD55"/>
<stop offset="0.1" stop-color="#FFDD55"/>
<stop offset="0.5" stop-color="#FF543E"/>
<stop offset="1" stop-color="#C837AB"/>
</radialGradient>
<radialGradient id="paint1_radial_618_12124" cx="0" cy="0" r="1" gradientTransform="matrix(3.60812 18.0203 -74.299 14.8768 -6.9506 2.9884)" gradientUnits="userSpaceOnUse">
<stop stop-color="#3771C8"/>
<stop offset="0.128" stop-color="#3771C8"/>
<stop offset="1" stop-color="#6600FF" stop-opacity="0"/>
</radialGradient>
</defs>
</svg>
