<svg width="42" height="43" viewBox="0 0 42 43" fill="none" xmlns="http://www.w3.org/2000/svg">
<path d="M34.3032 10.2602C34.3032 8.88154 33.1858 7.76832 31.8123 7.76832C30.4387 7.76832 29.3203 8.88154 29.3203 10.2602C29.3203 11.6338 30.4387 12.7471 31.8123 12.7471C33.1858 12.7471 34.3032 11.6338 34.3032 10.2602" fill="url(#paint0_linear_618_12119)"/>
<path d="M37.623 29.7119C37.5308 31.7344 37.1925 32.8333 36.9116 33.5631C36.5344 34.5308 36.0844 35.2227 35.3546 35.9484C34.6329 36.6742 33.941 37.1232 32.9733 37.4963C32.2435 37.7813 31.1405 38.1205 29.1181 38.2169C26.9316 38.3133 26.2837 38.3338 20.7392 38.3338C15.1997 38.3338 14.5467 38.3133 12.3602 38.2169C10.3378 38.1205 9.23998 37.7813 8.51008 37.4963C7.53732 37.1232 6.85055 36.6742 6.1248 35.9484C5.3939 35.2227 4.94392 34.5308 4.57182 33.5631C4.29091 32.8333 3.94756 31.7344 3.86038 29.7119C3.75382 27.5255 3.73429 26.8674 3.73429 21.3341C3.73429 15.7895 3.75382 15.1365 3.86038 12.95C3.94756 10.9276 4.29091 9.82975 4.57182 9.0937C4.94392 8.12709 5.3939 7.43924 6.1248 6.7135C6.85055 5.98882 7.53732 5.53877 8.51008 5.1616C9.23998 4.8756 10.3378 4.54141 12.3602 4.44508C14.5467 4.34867 15.1997 4.32406 20.7392 4.32406C26.2837 4.32406 26.9316 4.34867 29.1181 4.44508C31.1405 4.54141 32.2435 4.8756 32.9733 5.1616C33.941 5.53877 34.6329 5.98882 35.3546 6.7135C36.0844 7.43924 36.5344 8.12709 36.9116 9.0937C37.1925 9.82975 37.5308 10.9276 37.623 12.95C37.7245 15.1365 37.7491 15.7895 37.7491 21.3341C37.7491 26.8674 37.7245 27.5255 37.623 29.7119V29.7119ZM41.3574 12.7799C41.2559 10.5698 40.9073 9.05988 40.3897 7.74477C39.8628 6.38038 39.1565 5.2241 38.0003 4.06783C36.8491 2.9167 35.6929 2.2104 34.3285 1.6774C33.0082 1.16484 31.5034 0.812186 29.2923 0.715856C27.0812 0.609223 26.375 0.589769 20.7392 0.589769C15.1085 0.589769 14.3971 0.609223 12.186 0.715856C9.98003 0.812186 8.47625 1.16484 7.14984 1.6774C5.7906 2.2104 4.63433 2.9167 3.4832 4.06783C2.32693 5.2241 1.62063 6.38038 1.08862 7.74477C0.576062 9.05988 0.227565 10.5698 0.120932 12.7799C0.0246016 14.9909 0 15.6982 0 21.3341C0 26.9648 0.0246016 27.671 0.120932 29.8821C0.227565 32.0881 0.576062 33.5969 1.08862 34.9182C1.62063 36.2775 2.32693 37.4389 3.4832 38.59C4.63433 39.7412 5.7906 40.4526 7.14984 40.9846C8.47625 41.4971 9.98003 41.8457 12.186 41.9472C14.3971 42.0486 15.1085 42.0732 20.7392 42.0732C26.375 42.0732 27.0812 42.0486 29.2923 41.9472C31.5034 41.8457 33.0082 41.4971 34.3285 40.9846C35.6929 40.4526 36.8491 39.7412 38.0003 38.59C39.1565 37.4389 39.8628 36.2775 40.3897 34.9182C40.9073 33.5969 41.2559 32.0881 41.3574 29.8821C41.4589 27.671 41.4835 26.9648 41.4835 21.3341C41.4835 15.6982 41.4589 14.9909 41.3574 12.7799V12.7799Z" fill="url(#paint1_linear_618_12119)"/>
<path d="M20.7411 28.241C16.9248 28.241 13.828 25.1494 13.828 21.333C13.828 17.5106 16.9248 14.4149 20.7411 14.4149C24.5585 14.4149 27.6593 17.5106 27.6593 21.333C27.6593 25.1494 24.5585 28.241 20.7411 28.241V28.241ZM20.7411 10.6755C14.8582 10.6755 10.0938 15.4502 10.0938 21.333C10.0938 27.2108 14.8582 31.9805 20.7411 31.9805C26.624 31.9805 31.3936 27.2108 31.3936 21.333C31.3936 15.4502 26.624 10.6755 20.7411 10.6755Z" fill="url(#paint2_linear_618_12119)"/>
<defs>
<linearGradient id="paint0_linear_618_12119" x1="0.373498" y1="41.6443" x2="38.0277" y2="3.9903" gradientUnits="userSpaceOnUse">
<stop stop-color="#FFD521"/>
<stop offset="0.05" stop-color="#FFD521"/>
<stop offset="0.501119" stop-color="#F50000"/>
<stop offset="0.95" stop-color="#B900B4"/>
<stop offset="0.950079" stop-color="#B900B4"/>
<stop offset="1" stop-color="#B900B4"/>
</linearGradient>
<linearGradient id="paint1_linear_618_12119" x1="0.374175" y1="41.696" x2="38.0592" y2="4.01094" gradientUnits="userSpaceOnUse">
<stop stop-color="#FFD521"/>
<stop offset="0.05" stop-color="#FFD521"/>
<stop offset="0.501119" stop-color="#F50000"/>
<stop offset="0.95" stop-color="#B900B4"/>
<stop offset="0.950079" stop-color="#B900B4"/>
<stop offset="1" stop-color="#B900B4"/>
</linearGradient>
<linearGradient id="paint2_linear_618_12119" x1="0.385882" y1="41.696" x2="38.0619" y2="4.02003" gradientUnits="userSpaceOnUse">
<stop stop-color="#FFD521"/>
<stop offset="0.05" stop-color="#FFD521"/>
<stop offset="0.501119" stop-color="#F50000"/>
<stop offset="0.95" stop-color="#B900B4"/>
<stop offset="0.950079" stop-color="#B900B4"/>
<stop offset="1" stop-color="#B900B4"/>
</linearGradient>
</defs>
</svg>
