<svg width="48" height="48" viewBox="0 0 48 48" fill="none" xmlns="http://www.w3.org/2000/svg">
<g clip-path="url(#clip0_618_12041)">
<path d="M47.0432 12.3708C46.7719 11.3496 46.237 10.4177 45.4923 9.66813C44.7476 8.9186 43.819 8.37782 42.7996 8.09991C39.0469 7.09082 24.0469 7.09082 24.0469 7.09082C24.0469 7.09082 9.04688 7.09082 5.29415 8.09991C4.27474 8.37782 3.34619 8.9186 2.60145 9.66813C1.85671 10.4177 1.32189 11.3496 1.05051 12.3708C0.0468751 16.1399 0.046875 23.9999 0.046875 23.9999C0.046875 23.9999 0.0468751 31.8599 1.05051 35.629C1.32189 36.6502 1.85671 37.5822 2.60145 38.3317C3.34619 39.0812 4.27474 39.622 5.29415 39.8999C9.04688 40.909 24.0469 40.909 24.0469 40.909C24.0469 40.909 39.0469 40.909 42.7996 39.8999C43.819 39.622 44.7476 39.0812 45.4923 38.3317C46.237 37.5822 46.7719 36.6502 47.0432 35.629C48.0469 31.8599 48.0469 23.9999 48.0469 23.9999C48.0469 23.9999 48.0469 16.1399 47.0432 12.3708Z" fill="#FF0302"/>
<path d="M19.1367 31.1378V16.8633L31.6822 24.0006L19.1367 31.1378Z" fill="#FEFEFE"/>
</g>
<defs>
<clipPath id="clip0_618_12041">
<rect width="48" height="48" fill="white"/>
</clipPath>
</defs>
</svg>
